<?xml version="1.0" standalone="no"?>
<!DOCTYPE svg PUBLIC "-//W3C//DTD SVG 20010904//EN"
 "http://www.w3.org/TR/2001/REC-SVG-20010904/DTD/svg10.dtd">
<svg version="1.0" xmlns="http://www.w3.org/2000/svg"
 width="225.000000pt" height="225.000000pt" viewBox="0 0 225.000000 225.000000"
 preserveAspectRatio="xMidYMid meet">

<g transform="translate(0.000000,225.000000) scale(0.100000,-0.100000)"
fill="#000000" stroke="none">
<path d="M747 2159 c7 -7 15 -10 18 -7 3 3 -2 9 -12 12 -14 6 -15 5 -6 -5z"/>
<path d="M1376 2152 c5 -5 34 -28 64 -52 30 -24 59 -47 64 -51 5 -5 -2 -24
-17 -46 -47 -68 -50 -113 -21 -274 42 -231 24 -340 -69 -438 -24 -25 -32 -37
-17 -28 41 28 89 97 105 150 21 70 19 203 -5 333 -11 60 -20 124 -20 142 0 40
24 99 52 129 13 14 18 27 12 32 -27 25 -144 111 -151 111 -4 0 -3 -4 3 -8z"/>
<path d="M1056 2099 c3 -5 14 -9 25 -9 11 0 29 -5 40 -10 13 -7 19 -7 19 0 0
5 -3 10 -7 10 -5 0 -25 4 -45 9 -22 5 -36 5 -32 0z"/>
<path d="M934 2081 c-39 -18 -114 -94 -114 -115 0 -6 7 -2 15 9 8 11 22 30 31
43 23 30 72 60 120 71 28 6 32 9 14 10 -14 0 -43 -8 -66 -18z"/>
<path d="M1187 2038 c22 -18 46 -46 53 -61 7 -16 14 -26 17 -23 14 13 -73 116
-98 116 -6 0 7 -15 28 -32z"/>
<path d="M936 1974 c-9 -24 -7 -31 5 -14 8 11 9 8 4 -15 -6 -30 -6 -30 10 -7
14 19 14 24 2 37 -13 13 -16 13 -21 -1z"/>
<path d="M1107 1966 c-9 -24 -9 -28 3 -21 6 3 10 1 10 -6 0 -7 2 -10 5 -7 3 3
2 15 -3 28 -8 20 -9 21 -15 6z"/>
<path d="M964 1929 c-4 -7 -3 -9 4 -5 5 3 13 0 15 -6 4 -9 6 -10 6 -1 1 17
-16 25 -25 12z"/>
<path d="M1264 1866 c0 -42 4 -69 8 -59 8 22 8 80 -1 112 -4 14 -7 -8 -7 -53z"/>
<path d="M803 1875 c0 -33 2 -45 4 -27 2 18 2 45 0 60 -2 15 -4 0 -4 -33z"/>
<path d="M1101 1904 c0 -11 3 -14 6 -6 3 7 2 16 -1 19 -3 4 -6 -2 -5 -13z"/>
<path d="M927 1891 c-4 -17 -3 -21 5 -13 5 5 8 16 6 23 -3 8 -7 3 -11 -10z"/>
<path d="M1081 1894 c0 -11 3 -14 6 -6 3 7 2 16 -1 19 -3 4 -6 -2 -5 -13z"/>
<path d="M970 1889 c0 -17 29 -60 30 -44 1 6 6 1 11 -10 l9 -20 -3 20 c-1 11
-6 18 -11 15 -5 -3 -15 9 -22 25 -7 17 -13 23 -14 14z"/>
<path d="M1161 1884 c0 -11 3 -14 6 -6 3 7 2 16 -1 19 -3 4 -6 -2 -5 -13z"/>
<path d="M896 1865 c-9 -23 -8 -25 9 -25 17 0 19 9 6 28 -7 11 -10 10 -15 -3z"/>
<path d="M1110 1855 c0 -8 4 -15 10 -15 5 0 7 7 4 15 -4 8 -8 15 -10 15 -2 0
-4 -7 -4 -15z"/>
<path d="M1060 1855 c0 -15 18 -40 24 -34 3 3 -1 14 -9 25 -8 10 -14 15 -15 9z"/>
<path d="M888 1823 c6 -2 18 -2 25 0 6 3 1 5 -13 5 -14 0 -19 -2 -12 -5z"/>
<path d="M1158 1823 c6 -2 18 -2 25 0 6 3 1 5 -13 5 -14 0 -19 -2 -12 -5z"/>
<path d="M941 1804 c0 -11 3 -14 6 -6 3 7 2 16 -1 19 -3 4 -6 -2 -5 -13z"/>
<path d="M810 1775 c0 -5 10 -21 21 -35 13 -17 17 -18 10 -5 -17 33 -31 51
-31 40z"/>
<path d="M949 1768 c-6 -16 -7 -88 0 -88 4 0 7 20 7 45 -1 39 -3 52 -7 43z"/>
<path d="M1113 1723 c0 -29 4 -50 9 -47 5 3 6 10 2 15 -3 5 0 16 6 24 6 8 10
22 7 32 -3 13 -5 12 -7 -7 -2 -24 -3 -24 -10 5 -7 25 -8 21 -7 -22z"/>
<path d="M1237 1743 c-11 -13 -17 -27 -14 -30 3 -2 13 7 23 21 22 34 15 42 -9
9z"/>
<path d="M855 1700 c3 -5 8 -10 11 -10 2 0 4 5 4 10 0 6 -5 10 -11 10 -5 0 -7
-4 -4 -10z"/>
<path d="M1190 1685 c-8 -8 -33 -24 -55 -35 -23 -12 -29 -18 -15 -14 24 6 90
50 90 60 0 7 -5 5 -20 -11z"/>
<path d="M900 1664 c0 -8 62 -35 72 -32 6 2 -8 11 -31 20 -22 9 -41 15 -41 12z"/>
<path d="M630 1619 c0 -18 12 -32 48 -55 66 -43 257 -115 340 -129 39 -6 43
-5 40 11 -2 14 -24 26 -78 42 -41 13 -83 28 -92 33 -10 5 -24 9 -33 9 -8 0
-29 6 -47 14 -18 8 -53 22 -78 32 -25 10 -57 29 -72 43 l-28 25 0 -25z"/>
<path d="M1008 1623 c12 -2 32 -2 45 0 12 2 2 4 -23 4 -25 0 -35 -2 -22 -4z"/>
<path d="M1340 1327 c-57 -26 -177 -32 -240 -12 -25 8 -67 15 -95 17 -40 2
-50 0 -53 -14 -3 -14 3 -18 30 -18 19 0 57 -6 84 -14 27 -8 91 -17 142 -20 75
-5 96 -3 108 9 9 8 24 15 33 15 22 0 44 24 39 43 -2 12 -11 10 -48 -6z"/>
<path d="M1078 1140 c-18 -16 -27 -30 -20 -30 6 0 12 4 12 9 0 5 15 18 33 30
17 11 26 21 20 21 -7 0 -27 -13 -45 -30z"/>
<path d="M203 1009 c-55 -20 -47 -101 11 -107 16 -2 34 2 40 8 8 9 6 11 -11 6
-31 -10 -63 10 -63 38 0 31 24 50 55 44 14 -3 25 -2 25 2 0 12 -34 18 -57 9z"/>
<path d="M1039 993 c-3 -10 -2 -36 2 -58 l6 -40 2 50 c1 48 1 49 17 27 15 -22
17 -22 35 -6 18 17 19 16 19 -24 0 -23 5 -42 10 -42 6 0 10 25 10 55 0 59 -7
66 -35 35 l-18 -20 -22 20 c-21 20 -23 20 -26 3z"/>
<path d="M1240 953 c0 -31 3 -53 8 -49 10 11 11 106 1 106 -5 0 -9 -25 -9 -57z"/>
<path d="M757 974 c-2 -3 -1 -19 2 -37 5 -21 13 -33 26 -35 18 -3 19 -2 3 8
-20 13 -24 46 -6 52 8 3 6 6 -4 10 -9 4 -18 5 -21 2z"/>
<path d="M1278 975 c-3 -3 -2 -20 1 -38 5 -21 13 -33 26 -35 18 -3 19 -2 3 8
-10 6 -18 20 -18 30 0 12 7 20 18 20 14 0 15 2 2 10 -17 11 -24 12 -32 5z"/>
<path d="M1375 970 c-4 -6 1 -10 9 -10 11 0 16 -9 16 -30 0 -16 4 -30 8 -30 4
0 6 15 4 34 -4 34 -26 54 -37 36z"/>
<path d="M1508 975 c-3 -3 -2 -20 1 -38 5 -21 13 -33 26 -34 11 -2 14 0 8 3
-7 3 -13 17 -13 30 0 13 6 24 13 24 8 0 7 4 -3 10 -17 11 -24 12 -32 5z"/>
<path d="M287 964 c-15 -15 -7 -53 13 -59 27 -8 52 12 48 39 -3 21 -46 35 -61
20z m47 -13 c9 -14 -4 -41 -19 -41 -18 0 -28 17 -21 35 6 17 32 20 40 6z"/>
<path d="M377 964 c-15 -15 -7 -53 13 -59 27 -8 52 12 48 39 -3 21 -46 35 -61
20z m51 -27 c4 -20 -25 -34 -40 -19 -15 15 -1 44 19 40 10 -2 19 -11 21 -21z"/>
<path d="M461 913 c1 -32 4 -48 6 -36 3 13 13 23 26 25 17 2 22 10 22 33 0 25
-4 30 -27 33 -28 3 -28 3 -27 -55z m47 25 c-2 -13 -10 -23 -18 -23 -8 0 -16
10 -18 23 -3 17 2 22 18 22 16 0 21 -5 18 -22z"/>
<path d="M545 959 c-4 -5 -4 -21 -1 -35 5 -17 13 -24 31 -24 14 0 25 5 25 11
0 5 -4 8 -9 5 -17 -11 -39 5 -34 25 6 21 29 26 36 7 3 -8 6 -6 6 5 1 19 -43
25 -54 6z"/>
<path d="M620 934 c0 -21 4 -33 10 -29 6 4 10 12 9 18 -3 25 2 36 19 40 10 3
6 5 -10 6 -26 1 -28 -2 -28 -35z"/>
<path d="M699 963 l25 -5 -23 -18 c-27 -20 -21 -40 13 -40 19 0 21 4 18 35 -4
31 -8 35 -31 34 -26 -2 -26 -2 -2 -6z m21 -38 c0 -8 -7 -15 -15 -15 -26 0 -18
20 13 29 1 1 2 -6 2 -14z"/>
<path d="M813 935 c0 -22 2 -30 4 -17 2 12 2 30 0 40 -3 9 -5 -1 -4 -23z"/>
<path d="M851 943 c13 -40 22 -41 37 -8 16 35 14 44 -3 21 -15 -20 -15 -20
-30 0 -13 17 -14 16 -4 -13z"/>
<path d="M928 963 c17 -3 22 -11 22 -34 0 -16 4 -29 8 -29 4 0 6 16 4 35 -4
31 -8 35 -31 34 -23 -2 -24 -2 -3 -6z"/>
<path d="M1163 940 c2 -31 5 -35 30 -36 25 -1 27 2 26 35 -1 36 -1 36 -8 6 -3
-17 -13 -30 -21 -30 -8 0 -18 13 -22 30 -6 29 -6 29 -5 -5z"/>
<path d="M1330 935 c0 -19 4 -35 8 -35 4 0 7 16 7 35 0 19 -3 35 -7 35 -5 0
-8 -16 -8 -35z"/>
<path d="M1436 954 c-9 -24 12 -54 37 -53 l22 0 -22 9 c-13 5 -23 18 -23 29 0
12 8 21 23 24 20 4 19 4 -4 6 -16 0 -29 -5 -33 -15z"/>
<path d="M1560 941 c0 -17 5 -33 10 -36 6 -4 10 8 10 29 0 20 -4 36 -10 36 -5
0 -10 -13 -10 -29z"/>
<path d="M1607 935 c17 -35 17 -35 30 -13 7 13 12 30 12 38 0 9 -5 5 -13 -9
l-14 -24 -6 21 c-4 12 -11 22 -17 22 -5 0 -1 -16 8 -35z"/>
<path d="M1683 964 c11 -4 17 -15 17 -35 0 -16 5 -29 11 -29 6 0 9 14 7 33 -2
26 -8 32 -28 34 -14 1 -18 0 -7 -3z"/>
<path d="M916 931 c-5 -7 -3 -18 3 -24 14 -14 20 -6 11 17 -5 15 -9 16 -14 7z"/>
<path d="M1365 930 c-7 -11 2 -30 13 -30 4 0 8 9 8 20 0 21 -11 26 -21 10z"/>
<path d="M1677 933 c-10 -9 -9 -33 1 -33 4 0 8 9 8 20 0 23 0 22 -9 13z"/>
<path d="M215 850 c-3 -6 1 -7 9 -4 18 7 21 14 7 14 -6 0 -13 -4 -16 -10z"/>
<path d="M298 853 c6 -2 18 -2 25 0 6 3 1 5 -13 5 -14 0 -19 -2 -12 -5z"/>
<path d="M144 816 c-21 -21 -34 -43 -33 -57 1 -21 2 -20 9 6 5 17 24 42 42 58
18 15 29 27 24 27 -4 0 -23 -15 -42 -34z"/>
<path d="M340 846 c0 -2 7 -7 16 -10 8 -3 12 -2 9 4 -6 10 -25 14 -25 6z"/>
<path d="M477 833 c-3 -7 -2 -64 2 -95 2 -14 59 -8 75 8 19 18 21 65 4 82 -13
13 -74 17 -81 5z m58 -48 c0 -20 -6 -31 -17 -33 -15 -3 -18 4 -18 33 0 29 3
36 18 33 11 -2 17 -13 17 -33z"/>
<path d="M590 785 l0 -55 35 0 c23 0 35 5 35 14 0 9 -7 12 -20 9 -14 -4 -20 0
-20 11 0 9 8 16 20 16 11 0 20 5 20 10 0 6 -9 10 -20 10 -11 0 -20 5 -20 10 0
6 9 10 20 10 11 0 20 5 20 10 0 6 -16 10 -35 10 l-35 0 0 -55z"/>
<path d="M407 767 c4 -30 1 -45 -16 -70 l-22 -32 25 28 c27 29 33 70 16 97 -6
10 -7 3 -3 -23z"/>
<path d="M253 783 c9 -2 23 -2 30 0 6 3 -1 5 -18 5 -16 0 -22 -2 -12 -5z"/>
<path d="M216 763 c-6 -14 -5 -15 5 -6 7 7 10 15 7 18 -3 3 -9 -2 -12 -12z"/>
<path d="M300 761 c0 -6 4 -13 10 -16 6 -3 7 1 4 9 -7 18 -14 21 -14 7z"/>
<path d="M226 717 c13 -35 85 -34 83 0 -1 17 -2 17 -6 1 -6 -23 -41 -23 -65
-1 -18 16 -18 16 -12 0z"/>
<path d="M110 712 c0 -5 7 -9 15 -9 8 0 12 4 9 9 -3 4 -9 8 -15 8 -5 0 -9 -4
-9 -8z"/>
<path d="M1564 696 c-51 -22 -74 -61 -74 -122 0 -47 4 -59 33 -90 28 -31 39
-36 80 -36 80 -2 127 47 127 132 0 62 -28 106 -77 119 -47 13 -51 13 -89 -3z
m86 -65 c15 -30 12 -97 -6 -115 -21 -22 -61 -20 -74 3 -5 11 -10 36 -10 56 0
52 15 75 50 75 19 0 33 -7 40 -19z"/>
<path d="M326 688 c3 -5 10 -6 15 -3 13 9 11 12 -6 12 -8 0 -12 -4 -9 -9z"/>
<path d="M477 693 c-2 -5 -5 -37 -6 -73 -1 -36 -4 -89 -7 -117 l-6 -53 31 0
c30 0 31 1 32 48 0 26 3 64 7 86 7 37 8 35 26 -48 18 -83 20 -87 44 -84 22 3
29 13 53 88 l27 85 1 -87 1 -88 36 0 37 0 -7 53 c-3 28 -6 85 -6 125 l0 72
-48 0 -48 0 -18 -75 c-10 -41 -19 -75 -21 -75 -2 0 -11 34 -20 75 l-17 75 -43
0 c-24 0 -46 -3 -48 -7z"/>
<path d="M847 693 c-6 -10 -67 -226 -67 -236 0 -4 15 -7 34 -7 29 0 34 4 40
30 5 26 10 30 40 30 29 0 34 -4 40 -30 5 -27 10 -30 41 -30 39 0 39 1 10 95
-7 22 -20 66 -29 98 l-17 57 -44 0 c-24 0 -46 -3 -48 -7z m53 -62 c0 -5 3 -22
6 -38 5 -25 2 -31 -15 -36 -23 -6 -25 1 -15 52 6 28 24 45 24 22z"/>
<path d="M1050 575 l0 -125 30 0 c29 0 30 2 30 45 0 41 2 45 24 45 20 0 25 -7
35 -45 11 -42 13 -45 46 -45 l34 0 -14 46 c-8 26 -18 51 -24 57 -7 7 -4 18 9
35 26 32 25 67 0 92 -16 16 -33 20 -95 20 l-75 0 0 -125z m104 79 c24 -9 20
-51 -5 -59 -23 -8 -39 7 -39 36 0 27 14 34 44 23z"/>
<path d="M1280 676 c0 -23 4 -25 50 -28 l51 -3 -56 -77 c-30 -42 -55 -86 -55
-97 0 -20 5 -21 100 -21 l100 0 0 25 c0 24 -3 25 -55 25 -30 0 -55 2 -55 5 0
3 25 42 55 88 30 45 55 87 55 94 0 10 -25 13 -95 13 -94 0 -95 0 -95 -24z"/>
<path d="M138 669 c23 -26 23 -27 5 -40 -27 -20 -35 -36 -22 -45 7 -4 9 -3 5
4 -3 6 4 19 17 29 13 10 27 25 32 33 4 8 4 12 0 7 -5 -4 -20 3 -34 15 l-26 23
23 -26z"/>
<path d="M340 656 c0 -2 9 -6 20 -9 11 -3 18 -1 14 4 -5 9 -34 13 -34 5z"/>
<path d="M406 608 c10 -14 21 -24 23 -22 3 3 -6 15 -18 27 l-24 22 19 -27z"/>
<path d="M250 606 c0 -2 7 -7 16 -10 8 -3 12 -2 9 4 -6 10 -25 14 -25 6z"/>
<path d="M298 580 c6 -8 12 -23 12 -35 0 -12 -6 -27 -12 -35 -11 -12 -10 -12
5 -1 9 7 17 24 17 36 0 12 -8 29 -17 36 -15 11 -16 11 -5 -1z"/>
<path d="M97 559 c-3 -12 -2 -31 2 -42 6 -17 8 -12 8 21 0 47 -2 52 -10 21z"/>
<path d="M234 506 c11 -9 27 -16 35 -15 14 0 14 1 1 6 -8 3 -24 10 -35 15 -20
9 -20 9 -1 -6z"/>
<path d="M116 476 c4 -11 54 -41 54 -33 0 2 -13 13 -30 25 -17 13 -27 17 -24
8z"/>
<path d="M1780 468 c0 -15 8 -18 43 -16 40 1 40 1 7 5 -19 3 -38 10 -42 16 -5
8 -8 6 -8 -5z"/>
<path d="M1838 473 c7 -3 16 -2 19 1 4 3 -2 6 -13 5 -11 0 -14 -3 -6 -6z"/>
<path d="M376 455 c-11 -8 -15 -15 -9 -15 6 0 16 7 23 15 16 19 11 19 -14 0z"/>
<path d="M190 430 c8 -5 24 -10 34 -10 26 0 18 6 -19 14 -22 5 -26 4 -15 -4z"/>
<path d="M295 430 l-40 -7 35 -1 c19 -1 42 3 50 8 16 11 14 11 -45 0z"/>
<path d="M1739 423 c-13 -16 -12 -17 4 -4 16 13 21 21 13 21 -2 0 -10 -8 -17
-17z"/>
<path d="M460 365 l0 -55 35 0 c19 0 35 5 35 10 0 6 -9 10 -20 10 -17 0 -20 7
-20 39 0 25 -5 41 -15 45 -12 4 -15 -5 -15 -49z"/>
<path d="M650 400 c0 -12 -5 -17 -13 -14 -19 7 -39 -20 -35 -48 2 -19 10 -24
41 -26 l37 -3 0 55 c0 43 -3 56 -15 56 -8 0 -15 -9 -15 -20z m0 -50 c0 -11 -4
-20 -10 -20 -5 0 -10 9 -10 20 0 11 5 20 10 20 6 0 10 -9 10 -20z"/>
<path d="M551 397 c-6 -8 -8 -29 -4 -50 4 -27 11 -37 24 -37 21 0 26 16 7 23
-10 3 -10 9 0 26 10 18 10 24 -2 36 -11 12 -16 12 -25 2z"/>
<path d="M1947 396 c-4 -9 -2 -28 3 -42 6 -14 10 -43 10 -65 0 -21 5 -39 10
-39 15 0 12 111 -4 139 -11 20 -14 21 -19 7z"/>
<path d="M1687 393 c-2 -5 -7 -20 -11 -35 -5 -21 -3 -28 8 -28 13 0 26 28 26
58 0 13 -16 17 -23 5z"/>
<path d="M705 380 c-3 -6 4 -10 17 -11 l23 0 -22 -11 c-13 -6 -23 -19 -23 -30
0 -14 8 -18 35 -18 29 0 35 4 35 21 0 46 -46 80 -65 49z"/>
<path d="M790 325 c0 -8 5 -15 10 -15 6 0 10 7 10 15 0 8 -4 15 -10 15 -5 0
-10 -7 -10 -15z"/>
<path d="M442 253 c-6 -16 -14 -40 -18 -55 -5 -24 -8 -26 -21 -13 -18 19 -23
19 -38 -2 -10 -14 -16 -15 -27 -5 -10 7 -28 10 -48 6 -29 -6 -31 -5 -22 12 10
20 37 45 60 58 10 6 11 1 7 -21 -4 -23 -4 -24 4 -8 26 56 -12 62 -58 10 -44
-50 -41 -68 9 -63 27 2 40 0 40 -9 0 -16 -49 -53 -71 -53 -10 0 -21 -4 -24
-10 -14 -23 43 -8 77 20 22 18 43 28 52 24 9 -3 23 -1 30 5 11 9 19 9 35 -1
17 -10 25 -10 41 0 11 7 20 8 20 4 0 -11 80 -9 98 2 7 4 12 2 12 -5 0 -7 8 -5
20 6 11 10 20 13 20 8 0 -16 48 -25 69 -14 10 6 21 7 25 4 14 -15 96 -10 108
6 12 14 11 14 -4 2 -16 -12 -18 -11 -18 3 0 28 -29 30 -57 5 l-25 -24 7 24 7
23 -31 -23 c-33 -24 -59 -17 -41 11 7 11 10 11 10 2 0 -7 5 -10 10 -7 15 9 12
25 -5 25 -8 0 -19 -10 -26 -22 -10 -19 -12 -20 -21 -4 -5 9 -13 14 -19 11 -5
-4 -9 0 -9 7 0 7 -11 0 -25 -15 -24 -25 -45 -35 -45 -21 0 3 7 13 16 22 12 11
13 17 5 20 -7 2 -19 -4 -27 -14 -12 -15 -14 -15 -11 -3 4 12 0 15 -19 11 -13
-2 -24 -8 -24 -13 0 -4 -9 -13 -21 -20 -34 -18 -44 3 -20 42 23 37 27 54 11
44 -5 -3 -10 -1 -10 4 0 6 7 11 16 11 8 0 12 5 9 10 -11 17 -22 11 -33 -17z
m-52 -88 c0 -8 -4 -15 -10 -15 -5 0 -10 7 -10 15 0 8 5 15 10 15 6 0 10 -7 10
-15z m130 6 c0 -6 -4 -13 -10 -16 -5 -3 -10 1 -10 9 0 9 5 16 10 16 6 0 10 -4
10 -9z m280 -6 c-7 -9 -15 -13 -17 -11 -7 7 7 26 19 26 6 0 6 -6 -2 -15z"/>
<path d="M1073 270 c-13 -5 -23 -14 -23 -20 0 -13 17 -13 22 0 2 6 20 13 40
17 30 4 39 2 44 -12 5 -12 1 -23 -11 -31 -28 -21 -36 -17 -30 14 5 25 4 25
-10 -5 -8 -18 -19 -33 -23 -33 -5 0 -6 -15 -4 -32 l5 -33 9 33 c8 32 21 38 52
26 22 -8 20 -30 -4 -54 -22 -22 -69 -26 -89 -7 -11 10 -13 9 -9 -3 3 -9 20
-16 42 -18 60 -5 109 51 74 86 -9 9 -9 15 0 24 41 41 -19 74 -85 48z"/>
<path d="M1500 241 c0 -6 -11 -11 -24 -11 -14 0 -28 -5 -31 -10 -4 -7 3 -8 20
-4 25 6 26 5 23 -32 l-3 -39 54 0 c39 0 62 5 79 19 24 19 24 19 18 -2 -9 -26
3 -28 30 -6 15 12 15 14 2 11 -10 -4 -18 2 -22 16 -6 19 -8 20 -19 7 -6 -8
-21 -22 -31 -30 -18 -14 -19 -13 -13 2 10 27 -28 33 -55 9 -27 -26 -42 -14
-29 22 8 21 18 27 43 28 28 2 29 2 8 6 -14 3 -31 10 -37 15 -9 7 -13 7 -13 -1z
m64 -76 c-4 -8 -10 -12 -15 -9 -11 6 -2 24 11 24 5 0 7 -7 4 -15z"/>
<path d="M912 180 c-17 -27 -15 -30 11 -29 12 0 17 3 11 5 -7 3 -10 14 -7 24
7 25 1 25 -15 0z"/>
<path d="M1231 173 c-20 -26 -22 -26 -17 -5 5 28 -5 28 -22 1 -8 -12 -9 -18
-3 -14 6 3 11 2 11 -3 0 -11 71 -9 89 2 6 4 11 2 11 -5 0 -7 8 -5 20 6 11 10
20 13 20 8 0 -16 48 -25 70 -13 14 7 20 7 20 0 0 -17 28 -11 32 8 6 31 -14 40
-38 15 -24 -24 -44 -30 -44 -13 0 6 5 10 10 10 6 0 10 7 10 15 0 22 -18 18
-31 -7 -10 -19 -12 -20 -21 -4 -5 9 -13 14 -19 11 -5 -4 -9 -1 -9 6 0 7 -13 0
-30 -16 -16 -16 -33 -25 -37 -20 -5 4 -2 10 5 12 13 5 17 33 4 33 -4 0 -18
-12 -31 -27z"/>
<path d="M950 180 c-1 -8 -2 -18 -1 -22 0 -4 -10 -15 -24 -24 -30 -20 -36 -68
-8 -62 10 2 24 17 32 33 8 17 19 33 25 37 8 6 8 8 -1 8 -6 0 -14 10 -16 23 -2
12 -5 15 -7 7z m-9 -72 c-9 -25 -31 -36 -31 -16 0 15 19 38 32 38 4 0 4 -10
-1 -22z"/>
</g>
</svg>
